@startuml
'https://plantuml.com/class-diagram

abstract class Product{}
Product <|-- ConcreteProduct
ConcreteProduct <-- ConcreteCreator

note left of Creator::AnOperation
    product = FactoryMethod()
end note
abstract class Creator{
    # FactoryMethod()
    + AnOperation()
}
Creator <|-- ConcreteCreator

note left of ConcreteCreator::FactoryMethod
    return new ConcreteProduct
end note
class ConcreteCreator{
    # FactoryMethod()
}

@enduml