@startuml
'https://plantuml.com/class-diagram

abstract class  Context{
    contextInterface()
}
Context o--> Strategy

interface Strategy{
    AlgorithmInterface()
}
Strategy <|-- ConcreteStrategyA
Strategy <|-- ConcreteStrategyB
Strategy <|-- ConcreteStrategyC

class ConcreteStrategyA{
    AlgorithmInterface()
}

class ConcreteStrategyB{
    AlgorithmInterface()
}

class ConcreteStrategyC{
    AlgorithmInterface()
}

@enduml